PathFileType	4	(X/Y/Z)	outputs\dynamic_markers.trc
DataRate	CameraRate	NumFrames	NumMarkers	Units	OrigDataRate	OrigDataStartFrame	OrigNumFrames
360.000000	360.000000	4	48	m	360.000000	501	669
Frame#	Time	C7			CLAV			LANK			LASI			LBAK			LBHD			LELB			LFHD			LFIN			LFRM			LHEE			LIC			LKNE			LMANK			LMELB			LMKNE			LPSI			LSHO			LTHI			LTIB			LTOE			LUPA			LWRA			LWRB			RANK			RASI			RBAK			RBHD			RELB			RFHD			RFIN			RFRM			RHEE			RIC			RKNE			RMANK			RMELB			RMKNE			RPSI			RSHO			RTHI			RTIB			RTOE			RUPA			RWRA			RWRB			STRN			T10			
		X1	Y1	Z1	X2	Y2	Z2	X3	Y3	Z3	X4	Y4	Z4	X5	Y5	Z5	X6	Y6	Z6	X7	Y7	Z7	X8	Y8	Z8	X9	Y9	Z9	X10	Y10	Z10	X11	Y11	Z11	X12	Y12	Z12	X13	Y13	Z13	X14	Y14	Z14	X15	Y15	Z15	X16	Y16	Z16	X17	Y17	Z17	X18	Y18	Z18	X19	Y19	Z19	X20	Y20	Z20	X21	Y21	Z21	X22	Y22	Z22	X23	Y23	Z23	X24	Y24	Z24	X25	Y25	Z25	X26	Y26	Z26	X27	Y27	Z27	X28	Y28	Z28	X29	Y29	Z29	X30	Y30	Z30	X31	Y31	Z31	X32	Y32	Z32	X33	Y33	Z33	X34	Y34	Z34	X35	Y35	Z35	X36	Y36	Z36	X37	Y37	Z37	X38	Y38	Z38	X39	Y39	Z39	X40	Y40	Z40	X41	Y41	Z41	X42	Y42	Z42	X43	Y43	Z43	X44	Y44	Z44	X45	Y45	Z45	X46	Y46	Z46	X47	Y47	Z47	X48	Y48	Z48	

502	1.391666666666667	0.676552951335907	1.298866033554077	0.4856680929660797	0.6358965039253235	1.171275854110718	0.3702188432216644	0.09084153175354004	0.1719523966312408	0.4696335196495056	0.6889363527297974	0.762570858001709	0.4565071165561676	0.6613847017288208	1.146722555160522	0.6308480501174927	0.5321793556213379	1.402446269989014	0.365278959274292	0.266823410987854	1.187069416046143	0.7482991218566895	0.6286656856536865	1.446767926216125	0.2823701500892639	0.1376505941152573	0.9136608242988586	0.6636068820953369	0.1891636997461319	1.081462621688843	0.706181526184082	0.1448720693588257	0.1714048385620117	0.5467662811279297	0.6350114345550537	0.8019317388534546	0.551915168762207	0.5224090814590454	0.3613955974578857	0.2783983051776886	0.1675564050674438	0.08856342732906342	0.5000552535057068	0.3341265320777893	1.138233780860901	0.7969175577163696	0.5857789516448975	0.2658968865871429	0.3335434794425964	0.7676144242286682	0.8031997680664062	0.6543164253234863	0.4997711181640625	1.248934149742126	0.5111733078956604	0.5617136359214783	0.5064049959182739	0.3726959824562073	0.4063475728034973	0.3100458085536957	0.2978371381759644	0.08891001343727112	0.05479103326797485	0.32300665974617	0.3836407065391541	1.223252296447754	0.6107452511787415	0.1723583042621613	0.9401239156723022	0.709850549697876	0.1057313680648804	0.9869523048400879	0.7275290489196777	1.557846069335938	0.06794136762619019	0.4213995337486267	0.9444098472595215	0.8272573947906494	0.4798217713832855	0.8224644660949707	1.168887972831726	0.5519639849662781	0.6270347833633423	1.402373790740967	0.4882530272006989	1.078026533126831	1.398212432861328	0.3190185129642487	0.732931911945343	1.4589604139328	0.4005520045757294	1.341115832328796	1.239064335823059	0.06905122101306915	1.172813534736633	1.368162870407104	0.1888180375099182	1.460096120834351	0.04213220998644829	0.4140748977661133	0.9747920632362366	0.8861054182052612	0.5533486008644104	1.349269866943359	0.4925253987312317	0.4007891714572906	1.519650936126709	0.02316582575440407	0.3231531083583832	1.113553881645203	1.352728366851807	0.373466968536377	1.259345293045044	0.4534051418304443	0.3082668781280518	0.8615553975105286	0.8251658082008362	0.6639190912246704	0.7707408666610718	1.292067408561707	0.3550072312355042	1.174469113349915	0.6483883857727051	0.5074980854988098	1.438939929008484	0.357429176568985	0.416337788105011	1.699694037437439	0.07609179615974426	0.2923042774200439	0.9228193163871765	1.342506408691406	0.3174195289611816	1.245768666267395	1.29710865020752	0.1347115933895111	1.303158283233643	1.34196949005127	0.170154333114624	0.6791203618049622	0.9877434372901917	0.3756182193756104	0.7561511397361755	1.074847936630249	0.6193010807037354	
503	1.394444444444445	0.6858433485031128	1.298747658729553	0.4872235953807831	0.643877387046814	1.171831011772156	0.3709258735179901	0.09558311104774475	0.1738435029983521	0.4665152132511139	0.6963182687759399	0.7619838714599609	0.4521782696247101	0.6704867482185364	1.145458817481995	0.6308431625366211	0.5412120223045349	1.403049826622009	0.3672216534614563	0.2781278192996979	1.194505453109741	0.7518763542175293	0.6375678777694702	1.44728410243988	0.2839848399162292	0.1455246061086655	0.9271496534347534	0.6585201025009155	0.1987841129302979	1.091452240943909	0.7068086862564087	0.149234265089035	0.1732823252677917	0.5440214872360229	0.6425334811210632	0.8001875877380371	0.5482057332992554	0.5315839052200317	0.3552677631378174	0.2789079248905182	0.1699321717023849	0.08928541839122772	0.4985646903514862	0.3444881439208984	1.143842577934265	0.8001775145530701	0.5927639007568359	0.2606949508190155	0.3375886976718903	0.7738457918167114	0.8010388612747192	0.6510022878646851	0.5099026560783386	1.251030921936035	0.5133915543556213	0.570406436920166	0.5020110607147217	0.37030428647995	0.4146358370780945	0.305110901594162	0.2971430122852325	0.09094260632991791	0.05412086844444275	0.322029322385788	0.3944511413574219	1.228369355201721	0.6136125326156616	0.1794425547122955	0.9507032632827759	0.7063317894935608	0.1132502779364586	0.998113214969635	0.7246171832084656	1.560977339744568	0.06620026379823685	0.429774284362793	0.9518640041351318	0.8250342011451721	0.478780061006546	0.8305267095565796	1.167399883270264	0.5526210069656372	0.6364163160324097	1.402546525001526	0.4898979961872101	1.087730526924133	1.397834897041321	0.3289035260677338	0.7422719597816467	1.459046006202698	0.4020815491676331	1.351875066757202	1.234007954597473	0.08389165252447128	1.184558987617493	1.366940975189209	0.2005174458026886	1.46330451965332	0.04150056093931198	0.4190467596054077	0.9819126129150391	0.8837377429008484	0.5523625016212463	1.358477473258972	0.4928224384784698	0.4040038287639618	1.525781631469727	0.02149134874343872	0.3305430710315704	1.121918559074402	1.35172426700592	0.3840557932853699	1.270471930503845	0.4547305107116699	0.3092355132102966	0.8678768277168274	0.8230730295181274	0.6620988845825195	0.779415488243103	1.292285203933716	0.3567167520523071	1.182328104972839	0.6476241946220398	0.5090121626853943	1.446354627609253	0.3568388819694519	0.4212229251861572	1.707257390022278	0.0723988339304924	0.3052386343479156	0.9323329925537109	1.342368483543396	0.3226240873336792	1.256957769393921	1.295253396034241	0.1470496356487274	1.314615726470947	1.337948203086853	0.1842861771583557	0.6857134699821472	0.9886195659637451	0.3750596046447754	0.7639461755752563	1.072757244110107	0.6188700199127197	
504	1.397222222222222	0.6950737237930298	1.298643708229065	0.4888328611850739	0.651908814907074	1.172522902488708	0.3716988563537598	0.1006033793091774	0.1754355877637863	0.4635806381702423	0.7038047313690186	0.7614070773124695	0.4473898410797119	0.6794122457504272	1.144145250320435	0.6309240460395813	0.5503043532371521	1.403673887252808	0.369261622428894	0.2897272109985352	1.201675891876221	0.7554752826690674	0.6466327905654907	1.447767853736877	0.2858566641807556	0.1536560654640198	0.9410078525543213	0.6532466411590576	0.2086771279573441	1.101475477218628	0.7073004841804504	0.1538092046976089	0.1749349534511566	0.5411608219146729	0.6499896049499512	0.7984212040901184	0.5440735816955566	0.5403180718421936	0.3493664562702179	0.2796602249145508	0.1724687665700912	0.08968447148799896	0.4970508515834808	0.3550687730312347	1.149200916290283	0.8032805919647217	0.5996966958045959	0.2556333541870117	0.3414300382137299	0.7800379395484924	0.7988474369049072	0.6474931240081787	0.5201525688171387	1.252931475639343	0.5155782699584961	0.5790749192237854	0.4976649880409241	0.3679127097129822	0.4226205348968506	0.3003409504890442	0.2966652512550354	0.09303439408540726	0.05335401743650436	0.3210398852825165	0.4053123593330383	1.233100414276123	0.6164523363113403	0.1866081953048706	0.9613239169120789	0.702518105506897	0.1209706366062164	1.009445309638977	0.7214376926422119	1.563760042190552	0.06431375443935394	0.4377295672893524	0.9592835307121277	0.8229336738586426	0.4773598611354828	0.8386294841766357	1.165950775146484	0.5532463192939758	0.6457922458648682	1.402774930000305	0.491655021905899	1.097497701644897	1.397196054458618	0.3391298651695251	0.7516030073165894	1.459118723869324	0.4036851227283478	1.362318277359009	1.228602647781372	0.09881363064050674	1.196226119995117	1.3652263879776	0.2125659734010696	1.466153383255005	0.04084841161966324	0.4238541126251221	0.9893296957015991	0.8814148902893066	0.5516191720962524	1.367550730705261	0.4929377734661102	0.4070951044559479	1.531238198280334	0.0198636632412672	0.3374656140804291	1.130081176757812	1.350535273551941	0.3952651917934418	1.281609058380127	0.4561306536197662	0.3102365434169769	0.8741552829742432	0.8208535313606262	0.6601272225379944	0.7881752252578735	1.292569875717163	0.3584680259227753	1.19019627571106	0.646959125995636	0.5103821754455566	1.453666210174561	0.3560924530029297	0.4259300231933594	1.714115023612976	0.06874285638332367	0.3177807927131653	0.9420240521430969	1.342182397842407	0.3280899226665497	1.268069863319397	1.292893052101135	0.1596474796533585	1.32596230506897	1.333709120750427	0.1983382999897003	0.6924893260002136	0.9895451068878174	0.3744168877601624	0.7716279625892639	1.07075023651123	0.6185808777809143	
505	1.4	0.7043375968933105	1.298468947410583	0.4906269907951355	0.6599090695381165	1.173328042030334	0.3723141252994537	0.1057382151484489	0.1769893616437912	0.4605876207351685	0.7115558981895447	0.7608044743537903	0.4426125586032867	0.6885343790054321	1.14271354675293	0.6308677196502686	0.5595619082450867	1.404309034347534	0.3713447451591492	0.3016732037067413	1.208447694778442	0.7590137124061584	0.6557623744010925	1.448234438896179	0.2878214120864868	0.1618344187736511	0.9551687836647034	0.6476543545722961	0.2186386436223984	1.111513614654541	0.7076328992843628	0.1588787734508514	0.1761518865823746	0.5384015440940857	0.6573953032493591	0.7967290878295898	0.5396000146865845	0.5491144061088562	0.3434394299983978	0.2806682884693146	0.1753635704517365	0.0899895578622818	0.4955310523509979	0.3658042550086975	1.154070734977722	0.8063236474990845	0.606554388999939	0.2506742477416992	0.3456356525421143	0.7862756252288818	0.7965782284736633	0.6435343623161316	0.5305190682411194	1.254814267158508	0.5177287459373474	0.5874344110488892	0.4935491979122162	0.3656566441059113	0.4307537972927094	0.2954644858837128	0.2964025735855103	0.09498099982738495	0.05266718566417694	0.320037305355072	0.4163083732128143	1.237577795982361	0.6194218397140503	0.1938666552305222	0.9719666242599487	0.6984781622886658	0.1289201080799103	1.020893692970276	0.7180038690567017	1.566260933876038	0.06241386756300926	0.4455329477787018	0.9666869044303894	0.8207033276557922	0.4761632680892944	0.8466808795928955	1.164397001266479	0.5542317628860474	0.6552568078041077	1.40285336971283	0.493576854467392	1.107349753379822	1.396099328994751	0.3498379290103912	0.7610540390014648	1.459183931350708	0.4053436815738678	1.372413277626038	1.222841858863831	0.1138177886605263	1.208043694496155	1.363410711288452	0.224756732583046	1.468888163566589	0.04014043509960175	0.4288825690746307	0.9965848922729492	0.8793469071388245	0.55085289478302	1.376553535461426	0.4933673143386841	0.4105289578437805	1.536255478858948	0.01835587620735168	0.3442760109901428	1.138523578643799	1.348736763000488	0.4064940810203552	1.292698383331299	0.4576322436332703	0.3113962113857269	0.8802659511566162	0.818628191947937	0.6580935120582581	0.7971188426017761	1.292785406112671	0.360351026058197	1.197956919670105	0.6461700797080994	0.5119324326515198	1.460777521133423	0.355472207069397	0.430621325969696	1.720255136489868	0.0651809424161911	0.330138772726059	0.9518321752548218	1.341872572898865	0.3338645696640015	1.278754591941833	1.290076375007629	0.1723931878805161	1.337281107902527	1.328912377357483	0.2127573192119598	0.6996145844459534	0.9906069040298462	0.3736618757247925	0.7794643044471741	1.068504452705383	0.6176052689552307	
